<svg xmlns="http://www.w3.org/2000/svg" viewBox="0 0 48 49" width="48" height="49" fill="none"><path fill="#F1C996" d="M35.382 47.342c-1.099 2.086-4.315 1.94-5.671.184-3.075-3.584-3.548-8.598-6.15-12.477-1.939 4.499-2.27 10.096-6.4 13.281-1.283.62-3.438 1.098-4.173-.547-1.976-2.196-.73-5.16.184-7.5 1.319-3.988 4.793-6.695 6.112-10.684-4.94 2.087-9.182 5.929-14.637 6.622-1.682.184-4.246-.147-4.61-2.197-.766-4.72 10.318-7.94 13.392-8.966-4.062-2.123-9.365-2.27-12.293-6.254-1.424-1.571-1.135-4.83 1.21-5.302 6.148-.989 10.72 3.988 16.097 5.928-1.903-4.573-5.377-8.525-6.291-13.502-.51-2.197.694-4.136 1.792-5.928 6.806 1.135 7.904 9.071 9.697 14.453 2.633-2.486 2.196-8.782 6.99-13.17 1.534-1.32 4.792-.878 4.866 1.497.878 6.401-4.462 11.047-6.217 16.755 3.51-1.172 6.149-3.952 9.623-5.161 2.67-.841 5.818-1.719 8.34-.074 1.498 1.756.584 4.426-1.098 5.671-3.364 2.817-7.868 3.295-11.925 4.352 4.173 1.902 9.071 2.817 12.33 6.327.73 1.356 1.976 3.732.183 4.757-5.817 3.768-11.562-3.695-17.632-6.254 1.135 3.148 3.001 6.001 4.572 8.929.768 3 2.67 6.075 1.719 9.255zM27.04 25.463c-1.461-4.793-2.412-3.111-5.303-3.327-.368 1.682-.62 3.732 1.135 4.793 1.461 1.866 3.075-.441 4.173-1.46z"/></svg>