<svg xmlns="http://www.w3.org/2000/svg" viewBox="0 0 814 49" width="814" height="49" fill="none"><path fill="#F1C996" d="M801.426 47.176c-1.095 2.08-4.3 1.932-5.651.183-3.064-3.571-3.535-8.568-6.128-12.433-1.932 4.483-2.262 10.06-6.378 13.235-1.278.617-3.425 1.094-4.159-.545-1.969-2.19-.728-5.143.184-7.474 1.314-3.974 4.776-6.672 6.09-10.647-4.923 2.08-9.149 5.908-14.585 6.6-1.676.183-4.232-.147-4.593-2.19-.765-4.703 10.281-7.913 13.344-8.934-4.048-2.116-9.332-2.263-12.249-6.233-1.42-1.565-1.132-4.812 1.204-5.284 6.128-.984 10.684 3.975 16.041 5.908-1.895-4.557-5.357-8.495-6.268-13.455-.508-2.189.691-4.121 1.785-5.907 6.783 1.131 7.877 9.04 9.663 14.402 2.624-2.477 2.189-8.751 6.965-13.124 1.53-1.315 4.777-.875 4.85 1.492.875 6.38-4.446 11.009-6.196 16.696 3.499-1.168 6.128-3.938 9.59-5.143 2.66-.837 5.797-1.712 8.311-.073 1.492 1.75.581 4.41-1.095 5.651-3.351 2.807-7.84 3.284-11.883 4.336 4.159 1.896 9.04 2.808 12.287 6.306.728 1.351 1.969 3.718.183 4.74-5.798 3.755-11.522-3.682-17.571-6.233 1.132 3.137 2.991 5.981 4.557 8.898.764 2.99 2.66 6.054 1.712 9.223zm-8.312-21.802c-1.456-4.776-2.403-3.1-5.284-3.315-.366 1.676-.618 3.718 1.131 4.776 1.456 1.86 3.064-.44 4.159-1.456z"/><path fill="#F1C996" d="M35.257 47.176c-1.094 2.08-4.3 1.932-5.65.183-3.064-3.571-3.535-8.568-6.128-12.433-1.932 4.483-2.262 10.06-6.379 13.235-1.278.617-3.425 1.094-4.158-.545-1.97-2.19-.728-5.143.183-7.474 1.315-3.974 4.777-6.672 6.091-10.647-4.923 2.08-9.15 5.908-14.585 6.6-1.676.183-4.232-.147-4.593-2.19-.765-4.703 10.28-7.913 13.344-8.934-4.048-2.116-9.333-2.263-12.25-6.233-1.419-1.565-1.13-4.812 1.205-5.284 6.127-.984 10.684 3.975 16.041 5.908-1.896-4.557-5.357-8.495-6.269-13.455-.508-2.189.692-4.121 1.786-5.907 6.782 1.131 7.877 9.04 9.663 14.402 2.624-2.477 2.189-8.751 6.965-13.124 1.53-1.315 4.776-.875 4.85 1.492.874 6.38-4.447 11.009-6.196 16.696 3.499-1.168 6.128-3.938 9.59-5.143 2.66-.837 5.797-1.712 8.31-.073 1.493 1.75.582 4.41-1.094 5.651-3.352 2.807-7.84 3.284-11.883 4.336 4.158 1.896 9.04 2.808 12.286 6.306.728 1.351 1.97 3.718.184 4.74C40.772 39.038 35.048 31.6 29 29.05c1.13 3.137 2.99 5.981 4.555 8.898.765 2.99 2.66 6.054 1.713 9.223zm-8.31-21.802c-1.457-4.776-2.405-3.1-5.285-3.315-.367 1.676-.618 3.718 1.131 4.776 1.456 1.86 3.064-.44 4.158-1.456z"/></svg>